<svg xmlns="http://www.w3.org/2000/svg" viewBox="0 0 128 128">
  <!-- Tail -->
  <ellipse cx="64" cy="108" rx="10" ry="6" fill="#F05A52" />
  <ellipse cx="64" cy="114" rx="7" ry="4" fill="#F05A52" />
  <path d="M57 114 Q64 122 71 114" fill="#F05A52" />
  <!-- Body -->
  <ellipse cx="64" cy="76" rx="26" ry="32" fill="#F05A52" />
  <!-- Belly -->
  <ellipse cx="64" cy="80" rx="18" ry="22" fill="#F7B8B2"/>
  <!-- Left Leg nubs -->
  <ellipse cx="42" cy="85" rx="5" ry="3" fill="#F05A52" transform="rotate(-20 42 85)"/>
  <ellipse cx="40" cy="75" rx="5" ry="3" fill="#F05A52" transform="rotate(-15 40 75)"/>
  <!-- Right Leg nubs -->
  <ellipse cx="86" cy="85" rx="5" ry="3" fill="#F05A52" transform="rotate(20 86 85)"/>
  <ellipse cx="88" cy="75" rx="5" ry="3" fill="#F05A52" transform="rotate(15 88 75)"/>
  <!-- Left Arm -->
  <path d="M42 65 Q30 50 24 38 Q20 30 26 28 Q32 26 35 32 Q38 38 36 48 L42 58" fill="#F05A52" />
  <!-- Left Claw -->
  <ellipse cx="22" cy="26" rx="10" ry="7" fill="#F05A52"  transform="rotate(-15 22 26)"/>
  <path d="M16 22 Q12 16 18 14 Q22 13 22 18" fill="#F05A52" />
  <path d="M26 20 Q30 14 26 12 Q22 11 22 18" fill="#F05A52" />
  <!-- Right Arm -->
  <path d="M86 65 Q98 50 104 38 Q108 30 102 28 Q96 26 93 32 Q90 38 92 48 L86 58" fill="#F05A52" />
  <!-- Right Claw -->
  <ellipse cx="106" cy="26" rx="10" ry="7" fill="#F05A52"  transform="rotate(15 106 26)"/>
  <path d="M112 22 Q116 16 110 14 Q106 13 106 18" fill="#F05A52" />
  <path d="M102 20 Q98 14 102 12 Q106 11 106 18" fill="#F05A52" />
  <!-- Antennae -->
  <path d="M56 46 Q50 30 44 18" stroke="#F05A52" stroke-width="2.5" fill="none" stroke-linecap="round"/>
  <circle cx="43" cy="16" r="3" fill="#F05A52"/>
  <path d="M72 46 Q78 30 84 18" stroke="#F05A52" stroke-width="2.5" fill="none" stroke-linecap="round"/>
  <circle cx="85" cy="16" r="3" fill="#F05A52"/>
  <!-- Eyes -->
  <circle cx="54" cy="58" r="9" fill="white"/>
  <circle cx="74" cy="58" r="9" fill="white"/>
  <circle cx="56" cy="57" r="4.5" fill="#2C3E50"/>
  <circle cx="76" cy="57" r="4.5" fill="#2C3E50"/>
  <circle cx="57.5" cy="55.5" r="2" fill="white"/>
  <circle cx="77.5" cy="55.5" r="2" fill="white"/>
  <!-- Smile -->
  <path d="M56 70 Q64 77 72 70" stroke="#2C3E50" stroke-width="2" fill="none" stroke-linecap="round"/>
  <!-- Press hat -->
  <path d="M46 48 Q46 38 64 36 Q82 38 82 48" fill="#F39C12"/>
  <rect x="44" y="46" width="40" height="5" rx="2" fill="#D68910"/>
  <rect x="54" y="38" width="20" height="8" rx="1" fill="white"/>
  <text x="64" y="45" text-anchor="middle" font-size="6" font-family="Arial,sans-serif" font-weight="bold" fill="#2C3E50">PRESS</text>
  <!-- Newspaper roll in right claw -->
  <rect x="98" y="10" width="16" height="10" rx="2" fill="#ECF0F1" stroke="#BDC3C7" stroke-width="1"/>
  <line x1="100" y1="13" x2="112" y2="13" stroke="#BDC3C7" stroke-width="1"/>
  <line x1="100" y1="16" x2="108" y2="16" stroke="#BDC3C7" stroke-width="0.8"/>
</svg>
